<?xml version="1.0" encoding="UTF-8" standalone="no"?><!-- Generator: Gravit.io --><svg xmlns="http://www.w3.org/2000/svg" xmlns:xlink="http://www.w3.org/1999/xlink" style="isolation:isolate" viewBox="0 0 492 492" width="492pt" height="492pt"><defs><clipPath id="_clipPath_IsWxw4V260J2pJy6sY2OXu5o3vLIqoUK"><rect width="492" height="492"/></clipPath></defs><g clip-path="url(#_clipPath_IsWxw4V260J2pJy6sY2OXu5o3vLIqoUK)"><g><g><path d=" M 198.608 246.104 L 382.664 62.04 C 387.732 56.984 390.52 50.224 390.52 43.016 C 390.52 35.804 387.732 29.048 382.664 23.984 L 366.536 7.864 C 361.476 2.792 354.712 0 347.504 0 C 340.296 0 333.54 2.792 328.476 7.864 L 109.328 227.008 C 104.244 232.088 101.46 238.876 101.48 246.092 C 101.46 253.34 104.24 260.12 109.328 265.204 L 328.272 484.136 C 333.336 489.208 340.092 492 347.304 492 C 354.512 492 361.268 489.208 366.336 484.136 L 382.46 468.016 C 392.952 457.524 392.952 440.444 382.46 429.956 L 198.608 246.104 L 198.608 246.104 Z " fill="rgb(255,255,255)"/></g></g></g></svg>