<?xml version="1.0" encoding="UTF-8" standalone="no"?><!-- Generator: Gravit.io --><svg xmlns="http://www.w3.org/2000/svg" xmlns:xlink="http://www.w3.org/1999/xlink" style="isolation:isolate" viewBox="0 0 492 492" width="492pt" height="492pt"><defs><clipPath id="_clipPath_YlEyl0k3YOMnQ5vr394s43WwDz0M50yi"><rect width="492" height="492"/></clipPath></defs><g clip-path="url(#_clipPath_YlEyl0k3YOMnQ5vr394s43WwDz0M50yi)"><g><g><path d=" M 293.392 246.104 L 109.336 62.04 C 104.268 56.984 101.48 50.224 101.48 43.016 C 101.48 35.804 104.268 29.048 109.336 23.984 L 125.464 7.864 C 130.524 2.792 137.288 0 144.496 0 C 151.704 0 158.46 2.792 163.524 7.864 L 382.672 227.008 C 387.756 232.088 390.54 238.876 390.52 246.092 C 390.54 253.34 387.76 260.12 382.672 265.204 L 163.728 484.136 C 158.664 489.208 151.908 492 144.696 492 C 137.488 492 130.732 489.208 125.664 484.136 L 109.54 468.016 C 99.048 457.524 99.048 440.444 109.54 429.956 L 293.392 246.104 Z " fill="#ffffff"/></g></g></g></svg>